# xmcd
#
# Track frame offsets: 
#        150
#        17162
#        33315
#        43690
#        57322
#        71780
#        85527
#        97155
#        108045
#        121327
#        135672
#        149425
#        159955
#        173805
#        186117
#        196715
#        210407
#        222710
#        236300
#        250450
#        264135
#
# Disc length: 3673 seconds
#
# Revision: 0
# Processed by: cddbd v1.5.2PL0 Copyright (c) Steve Scherf et al.
# Submitted via: ExactAudioCopy v0.95a5
#
DISCID=240e5715
DTITLE=Various Artist - Savoy Blues
DYEAR=2003
DGENRE=Blues
TTITLE0=Goin' Mad Blues - Delta John (John Lee Hooker)
TTITLE1=Lowdown Midnight Boogie - Birmingham Sam (John Lee Hooker)
TTITLE2=Robbie-Doby Boogie - Brownie Mcghee 
TTITLE3=Miss Pearl Boogie - John Lee Hooker
TTITLE4=Do The Boogie - John Lee Hooker 
TTITLE5=Mistrustin' Blues - Little Esther and Mel Walker with Johnny Oti
TTITLE5=s Orchestra
TTITLE6=Sad Feeling - Helen Humes with Marshall Royal and His Orchestra 
TTITLE7=Knockin' Myself Out - Helen Humes 
TTITLE8=Stacked Deck - Billy Wright 
TTITLE9=Doggin' Blues - Linda Hopkins with Johnny Otis Orchestra 
TTITLE10=Warning Blues - Linda Hopkins with Johnny Otis Orchestra 
TTITLE11=Good Lovin' - H-Bomb Ferguson 
TTITLE12=Take Out Some Time - Little Miss Sharecropper (Lavern Baker) 
TTITLE13=I've Tried - Little Miss Sharecropper
TTITLE14=How Long - Little Miss Sharecropper 
TTITLE15=Never Trust A Woman - Tommy Brown
TTITLE16=Keyhole Blues - Eddie Mack 
TTITLE17=Goin' Down Slow - Billy Wright 
TTITLE18=In The Evening - Joe Williams
TTITLE19=Kansas City Blues - Joe Williams
TTITLE20=Things Have Changed - Sticks Mcghee
EXTD=
EXTT0=
EXTT1=
EXTT2=
EXTT3=
EXTT4=
EXTT5=
EXTT6=
EXTT7=
EXTT8=
EXTT9=
EXTT10=
EXTT11=
EXTT12=
EXTT13=
EXTT14=
EXTT15=
EXTT16=
EXTT17=
EXTT18=
EXTT19=
EXTT20=
PLAYORDER=
